<?xml version="1.0" encoding="UTF-8"?>
<!DOCTYPE svg PUBLIC "-//W3C//DTD SVG 1.1//EN" "http://www.w3.org/Graphics/SVG/1.1/DTD/svg11.dtd">
<svg xmlns="http://www.w3.org/2000/svg" version="1.1" width="225px" height="225px" style="shape-rendering:geometricPrecision; text-rendering:geometricPrecision; image-rendering:optimizeQuality; fill-rule:evenodd; clip-rule:evenodd" xmlns:xlink="http://www.w3.org/1999/xlink">
<g><path style="opacity:1" fill="#3b3e3c" d="M -0.5,0.5 C -0.5,0.166667 -0.5,-0.166667 -0.5,-0.5C 74.5,-0.5 149.5,-0.5 224.5,-0.5C 224.5,-0.166667 224.5,0.166667 224.5,0.5C 223.833,69.5 223.167,138.5 222.5,207.5C 222.5,204.833 222.5,202.167 222.5,199.5C 222.5,133.5 222.5,67.5 222.5,1.5C 154.833,1.5 87.1667,1.5 19.5,1.5C 13.5,1.5 7.5,1.5 1.5,1.5C 1.5,32.5 1.5,63.5 1.5,94.5C 1.5,108.833 1.5,123.167 1.5,137.5C 1.5,149.167 1.5,160.833 1.5,172.5C 1.5,173.167 1.5,173.833 1.5,174.5C 1.5,188.833 1.5,203.167 1.5,217.5C 1.5,218.167 1.5,218.833 1.5,219.5C 0.833333,146.5 0.166667,73.5 -0.5,0.5 Z"/></g>
<g><path style="opacity:1" fill="#141617" d="M -0.5,0.5 C 0.166667,73.5 0.833333,146.5 1.5,219.5C 1.5,220.5 1.5,221.5 1.5,222.5C 2.5,222.5 3.5,222.5 4.5,222.5C 7.83333,222.5 11.1667,222.5 14.5,222.5C 26.1667,222.5 37.8333,222.5 49.5,222.5C 50.5,222.5 51.5,222.5 52.5,222.5C 63.8333,222.5 75.1667,222.5 86.5,222.5C 100.833,222.5 115.167,222.5 129.5,222.5C 160.5,222.5 191.5,222.5 222.5,222.5C 222.5,217.5 222.5,212.5 222.5,207.5C 223.167,138.5 223.833,69.5 224.5,0.5C 224.5,75.1667 224.5,149.833 224.5,224.5C 149.5,224.5 74.5,224.5 -0.5,224.5C -0.5,149.833 -0.5,75.1667 -0.5,0.5 Z"/></g>
<g><path style="opacity:1" fill="#b8eaa0" d="M 11.5,214.5 C 12.8916,217.007 13.8916,219.673 14.5,222.5C 11.1667,222.5 7.83333,222.5 4.5,222.5C 6.09413,219.236 8.42747,216.569 11.5,214.5 Z"/></g>
<g><path style="opacity:1" fill="#fdd8d0" d="M 156.5,202.5 C 154.438,203.776 152.104,204.61 149.5,205C 142.508,205.5 135.508,205.666 128.5,205.5C 126.265,205.795 124.265,205.461 122.5,204.5C 133.92,204.924 145.253,204.257 156.5,202.5 Z"/></g>
<g><path style="opacity:1" fill="#f7ded2" d="M 9.5,200.5 C 7.67447,205.484 5.34114,210.151 2.5,214.5C 3.79302,209.247 6.12635,204.581 9.5,200.5 Z"/></g>
<g><path style="opacity:1" fill="#ece6cd" d="M 32.5,201.5 C 29.5159,203.659 26.1826,205.325 22.5,206.5C 25.2353,203.799 28.5686,202.132 32.5,201.5 Z"/></g>
<g><path style="opacity:1" fill="#93e36a" d="M 43.5,199.5 C 47.5237,206.611 49.5237,214.277 49.5,222.5C 37.8333,222.5 26.1667,222.5 14.5,222.5C 13.8916,219.673 12.8916,217.007 11.5,214.5C 13.3788,211.885 15.7121,209.719 18.5,208C 19.745,207.209 21.0783,206.709 22.5,206.5C 26.1826,205.325 29.5159,203.659 32.5,201.5C 36.1667,200.833 39.8333,200.167 43.5,199.5 Z"/></g>
<g><path style="opacity:1" fill="#fedf7e" d="M 94.5,199.5 C 103.487,202.405 112.82,204.071 122.5,204.5C 124.265,205.461 126.265,205.795 128.5,205.5C 129.452,211.075 129.786,216.741 129.5,222.5C 115.167,222.5 100.833,222.5 86.5,222.5C 86.5119,214.404 85.1786,206.571 82.5,199C 86.5104,198.643 90.5104,198.81 94.5,199.5 Z"/></g>
<g><path style="opacity:1" fill="#b7a8c9" d="M 42.5,198.5 C 42.8417,197.662 43.5084,197.328 44.5,197.5C 49.7666,204.866 52.4332,213.2 52.5,222.5C 51.5,222.5 50.5,222.5 49.5,222.5C 49.5237,214.277 47.5237,206.611 43.5,199.5C 43.5,198.833 43.1667,198.5 42.5,198.5 Z"/></g>
<g><path style="opacity:1" fill="#fad7ce" d="M 12.5,195.5 C 12.573,197.027 11.9063,198.027 10.5,198.5C 10.427,196.973 11.0937,195.973 12.5,195.5 Z"/></g>
<g><path style="opacity:1" fill="#e6e7eb" d="M 94.5,199.5 C 90.5104,198.81 86.5104,198.643 82.5,199C 85.1786,206.571 86.5119,214.404 86.5,222.5C 75.1667,222.5 63.8333,222.5 52.5,222.5C 52.4332,213.2 49.7666,204.866 44.5,197.5C 58.1057,195.026 71.7723,194.859 85.5,197C 88.7974,197.204 91.7974,198.037 94.5,199.5 Z"/></g>
<g><path style="opacity:1" fill="#f02a14" d="M 166.5,74.5 C 142.398,95.7068 116.732,114.707 89.5,131.5C 77.068,137.609 65.7346,145.275 55.5,154.5C 40.0334,165.631 27.3667,179.298 17.5,195.5C 30.4078,181.91 44.7411,170.243 60.5,160.5C 74.1456,154.001 88.1456,148.668 102.5,144.5C 106.197,143.992 109.864,143.326 113.5,142.5C 116.157,142.065 118.491,141.065 120.5,139.5C 145.809,132.183 168.475,120.183 188.5,103.5C 193.406,100.102 197.906,96.1017 202,91.5C 203.756,93.0591 203.756,94.7258 202,96.5C 198.271,100.398 194.438,104.065 190.5,107.5C 173.526,120.156 155.192,130.49 135.5,138.5C 127.609,140.796 119.942,143.463 112.5,146.5C 110.901,146.232 109.568,146.566 108.5,147.5C 105.572,147.565 102.905,148.232 100.5,149.5C 93.6988,150.324 87.3655,152.324 81.5,155.5C 78.7594,155.707 76.4261,156.707 74.5,158.5C 54.7727,166.71 37.6061,178.71 23,194.5C 22.3333,195.167 22.3333,195.833 23,196.5C 38.1764,183.768 55.6764,176.268 75.5,174C 89.5,173.667 103.5,173.333 117.5,173C 122.076,172.728 126.409,171.895 130.5,170.5C 156.976,166.127 177.809,153.127 193,131.5C 193.5,131.833 194,132.167 194.5,132.5C 188.409,144.091 179.743,153.258 168.5,160C 161.197,163.82 153.864,167.32 146.5,170.5C 139.358,172.037 132.358,173.703 125.5,175.5C 108.889,177.213 92.222,177.88 75.5,177.5C 61.0942,178.632 48.0942,183.299 36.5,191.5C 33.8021,191.845 31.8021,193.178 30.5,195.5C 19.7128,202.271 20.0462,202.938 31.5,197.5C 34.0673,197.279 36.4006,196.612 38.5,195.5C 57.1598,191.528 75.8264,191.528 94.5,195.5C 111.504,200.381 128.837,202.215 146.5,201C 149.797,200.796 152.797,199.963 155.5,198.5C 158.516,198.159 161.182,196.993 163.5,195C 168.201,190.634 172.534,185.967 176.5,181C 177.965,180.399 178.965,180.899 179.5,182.5C 173.614,191.398 165.947,198.065 156.5,202.5C 145.253,204.257 133.92,204.924 122.5,204.5C 113.406,202.205 104.072,200.538 94.5,199.5C 91.7974,198.037 88.7974,197.204 85.5,197C 71.7723,194.859 58.1057,195.026 44.5,197.5C 43.5084,197.328 42.8417,197.662 42.5,198.5C 38.8379,198.723 35.5046,199.723 32.5,201.5C 28.5686,202.132 25.2353,203.799 22.5,206.5C 21.0783,206.709 19.745,207.209 18.5,208C 15.7121,209.719 13.3788,211.885 11.5,214.5C 8.42747,216.569 6.09413,219.236 4.5,222.5C 3.5,222.5 2.5,222.5 1.5,222.5C 1.5,221.5 1.5,220.5 1.5,219.5C 1.5,218.833 1.5,218.167 1.5,217.5C 2.40397,216.791 2.73731,215.791 2.5,214.5C 5.34114,210.151 7.67447,205.484 9.5,200.5C 10.3382,200.158 10.6716,199.492 10.5,198.5C 11.9063,198.027 12.573,197.027 12.5,195.5C 13.3382,195.158 13.6716,194.492 13.5,193.5C 14.9063,193.027 15.573,192.027 15.5,190.5C 16.1667,190.5 16.5,190.167 16.5,189.5C 17.9063,189.027 18.573,188.027 18.5,186.5C 19.9063,186.027 20.573,185.027 20.5,183.5C 21.1667,183.5 21.5,183.167 21.5,182.5C 23.2624,181.738 24.2624,180.404 24.5,178.5C 33.5326,168.467 43.1992,159.133 53.5,150.5C 64.3648,142.905 75.3648,135.572 86.5,128.5C 114.086,112.534 139.752,93.8672 163.5,72.5C 175.5,61.2669 187.333,49.9336 199,38.5C 199.5,38.8333 200,39.1667 200.5,39.5C 189.817,51.8492 178.483,63.5158 166.5,74.5 Z"/></g>
<g><path style="opacity:1" fill="#ffdfd0" d="M 94.5,199.5 C 104.072,200.538 113.406,202.205 122.5,204.5C 112.82,204.071 103.487,202.405 94.5,199.5 Z"/></g>
<g><path style="opacity:1" fill="#e5ebcb" d="M 42.5,198.5 C 43.1667,198.5 43.5,198.833 43.5,199.5C 39.8333,200.167 36.1667,200.833 32.5,201.5C 35.5046,199.723 38.8379,198.723 42.5,198.5 Z"/></g>
<g><path style="opacity:1" fill="#f7dacb" d="M 38.5,195.5 C 36.4006,196.612 34.0673,197.279 31.5,197.5C 33.4385,195.837 35.7718,195.171 38.5,195.5 Z"/></g>
<g><path style="opacity:1" fill="#eaebd1" d="M 30.5,195.5 C 28.9689,196.925 29.3023,197.591 31.5,197.5C 20.0462,202.938 19.7128,202.271 30.5,195.5 Z"/></g>
<g><path style="opacity:1" fill="#ffbfb8" d="M 17.5,195.5 C 17.5386,196.756 17.0386,197.756 16,198.5C 15.4153,197.002 15.9153,196.002 17.5,195.5 Z"/></g>
<g><path style="opacity:1" fill="#feddce" d="M 94.5,195.5 C 94.5,195.167 94.5,194.833 94.5,194.5C 105.324,197.289 116.324,198.955 127.5,199.5C 136.738,200.805 146.071,200.471 155.5,198.5C 152.797,199.963 149.797,200.796 146.5,201C 128.837,202.215 111.504,200.381 94.5,195.5 Z"/></g>
<g><path style="opacity:1" fill="#a9e885" d="M 36.5,191.5 C 40.0314,192.225 40.698,193.558 38.5,195.5C 35.7718,195.171 33.4385,195.837 31.5,197.5C 29.3023,197.591 28.9689,196.925 30.5,195.5C 31.8021,193.178 33.8021,191.845 36.5,191.5 Z"/></g>
<g><path style="opacity:1" fill="#f5ebe0" d="M 15.5,190.5 C 15.573,192.027 14.9063,193.027 13.5,193.5C 13.427,191.973 14.0937,190.973 15.5,190.5 Z"/></g>
<g><path style="opacity:1" fill="#fec6c0" d="M 18.5,186.5 C 18.573,188.027 17.9063,189.027 16.5,189.5C 16.427,187.973 17.0937,186.973 18.5,186.5 Z"/></g>
<g><path style="opacity:1" fill="#f6ddd0" d="M 20.5,183.5 C 20.573,185.027 19.9063,186.027 18.5,186.5C 18.427,184.973 19.0937,183.973 20.5,183.5 Z"/></g>
<g><path style="opacity:1" fill="#e8e4e6" d="M 75.5,177.5 C 75.5,177.833 75.5,178.167 75.5,178.5C 75.0618,178.435 74.7284,178.601 74.5,179C 76.9009,182.969 78.9009,187.135 80.5,191.5C 85.1653,192.688 89.832,193.688 94.5,194.5C 94.5,194.833 94.5,195.167 94.5,195.5C 75.8264,191.528 57.1598,191.528 38.5,195.5C 40.698,193.558 40.0314,192.225 36.5,191.5C 48.0942,183.299 61.0942,178.632 75.5,177.5 Z"/></g>
<g><path style="opacity:1" fill="#fede7e" d="M 121.5,176.5 C 124.279,183.947 126.279,191.614 127.5,199.5C 116.324,198.955 105.324,197.289 94.5,194.5C 89.832,193.688 85.1653,192.688 80.5,191.5C 78.9009,187.135 76.9009,182.969 74.5,179C 74.7284,178.601 75.0618,178.435 75.5,178.5C 90.9275,179.025 106.261,178.358 121.5,176.5 Z"/></g>
<g><path style="opacity:1" fill="#fef0cb" d="M 125.5,175.5 C 124.432,176.434 123.099,176.768 121.5,176.5C 106.261,178.358 90.9275,179.025 75.5,178.5C 75.5,178.167 75.5,177.833 75.5,177.5C 92.222,177.88 108.889,177.213 125.5,175.5 Z"/></g>
<g><path style="opacity:1" fill="#94e36c" d="M 1.5,174.5 C 8.99348,174.634 15.9935,176.467 22.5,180C 21.7476,180.671 21.4142,181.504 21.5,182.5C 21.5,183.167 21.1667,183.5 20.5,183.5C 19.0937,183.973 18.427,184.973 18.5,186.5C 17.0937,186.973 16.427,187.973 16.5,189.5C 16.5,190.167 16.1667,190.5 15.5,190.5C 14.0937,190.973 13.427,191.973 13.5,193.5C 13.6716,194.492 13.3382,195.158 12.5,195.5C 11.0937,195.973 10.427,196.973 10.5,198.5C 10.6716,199.492 10.3382,200.158 9.5,200.5C 6.12635,204.581 3.79302,209.247 2.5,214.5C 2.73731,215.791 2.40397,216.791 1.5,217.5C 1.5,203.167 1.5,188.833 1.5,174.5 Z"/></g>
<g><path style="opacity:1" fill="#e4e2e7" d="M 146.5,170.5 C 139.926,173.572 132.926,175.239 125.5,175.5C 132.358,173.703 139.358,172.037 146.5,170.5 Z"/></g>
<g><path style="opacity:1" fill="#baacca" d="M 1.5,172.5 C 10.0831,171.561 17.7497,173.561 24.5,178.5C 24.2624,180.404 23.2624,181.738 21.5,182.5C 21.4142,181.504 21.7476,180.671 22.5,180C 15.9935,176.467 8.99348,174.634 1.5,174.5C 1.5,173.833 1.5,173.167 1.5,172.5 Z"/></g>
<g><path style="opacity:1" fill="#eee8e5" d="M 74.5,158.5 C 70.8965,160.64 67.2299,162.807 63.5,165C 66.206,167.371 68.5394,170.037 70.5,173C 85.7934,172.731 101.127,172.398 116.5,172C 117.416,171.722 118.082,171.222 118.5,170.5C 122.413,171.201 126.413,171.201 130.5,170.5C 126.409,171.895 122.076,172.728 117.5,173C 103.5,173.333 89.5,173.667 75.5,174C 55.6764,176.268 38.1764,183.768 23,196.5C 22.3333,195.833 22.3333,195.167 23,194.5C 37.6061,178.71 54.7727,166.71 74.5,158.5 Z"/></g>
<g><path style="opacity:1" fill="#ebe8e6" d="M 55.5,154.5 C 55.3893,155.117 55.056,155.617 54.5,156C 56.1137,158.127 58.1137,159.627 60.5,160.5C 44.7411,170.243 30.4078,181.91 17.5,195.5C 27.3667,179.298 40.0334,165.631 55.5,154.5 Z"/></g>
<g><path style="opacity:1" fill="#fede7f" d="M 106.5,148.5 C 111.528,155.22 115.528,162.553 118.5,170.5C 118.082,171.222 117.416,171.722 116.5,172C 101.127,172.398 85.7934,172.731 70.5,173C 68.5394,170.037 66.206,167.371 63.5,165C 67.2299,162.807 70.8965,160.64 74.5,158.5C 76.4261,156.707 78.7594,155.707 81.5,155.5C 88.0507,153.87 94.3841,151.87 100.5,149.5C 102.621,149.675 104.621,149.341 106.5,148.5 Z"/></g>
<g><path style="opacity:1" fill="#ffe3d1" d="M 100.5,149.5 C 94.3841,151.87 88.0507,153.87 81.5,155.5C 87.3655,152.324 93.6988,150.324 100.5,149.5 Z"/></g>
<g><path style="opacity:1" fill="#fde4d8" d="M 108.5,147.5 C 108.158,148.338 107.492,148.672 106.5,148.5C 104.621,149.341 102.621,149.675 100.5,149.5C 102.905,148.232 105.572,147.565 108.5,147.5 Z"/></g>
<g><path style="opacity:1" fill="#eae0e3" d="M 135.5,138.5 C 128.363,142.325 120.697,144.992 112.5,146.5C 119.942,143.463 127.609,140.796 135.5,138.5 Z"/></g>
<g><path style="opacity:1" fill="#f9d3d0" d="M 120.5,139.5 C 118.491,141.065 116.157,142.065 113.5,142.5C 115.32,140.552 117.654,139.552 120.5,139.5 Z"/></g>
<g><path style="opacity:1" fill="#e5e8ed" d="M 1.5,137.5 C 18.7349,138.467 34.7349,143.467 49.5,152.5C 50.6223,151.37 51.9557,150.703 53.5,150.5C 43.1992,159.133 33.5326,168.467 24.5,178.5C 17.7497,173.561 10.0831,171.561 1.5,172.5C 1.5,160.833 1.5,149.167 1.5,137.5 Z"/></g>
<g><path style="opacity:1" fill="#ffe08c" d="M 89.5,131.5 C 90.552,131.351 91.552,131.517 92.5,132C 96.0704,136.06 99.4038,140.227 102.5,144.5C 88.1456,148.668 74.1456,154.001 60.5,160.5C 58.1137,159.627 56.1137,158.127 54.5,156C 55.056,155.617 55.3893,155.117 55.5,154.5C 65.7346,145.275 77.068,137.609 89.5,131.5 Z"/></g>
<g><path style="opacity:1" fill="#89d1f9" d="M 190.5,107.5 C 192.433,108.642 193.933,110.308 195,112.5C 208.966,140.048 218.133,169.048 222.5,199.5C 222.5,202.167 222.5,204.833 222.5,207.5C 222.5,212.5 222.5,217.5 222.5,222.5C 191.5,222.5 160.5,222.5 129.5,222.5C 129.786,216.741 129.452,211.075 128.5,205.5C 135.508,205.666 142.508,205.5 149.5,205C 152.104,204.61 154.438,203.776 156.5,202.5C 165.947,198.065 173.614,191.398 179.5,182.5C 178.965,180.899 177.965,180.399 176.5,181C 172.534,185.967 168.201,190.634 163.5,195C 161.182,196.993 158.516,198.159 155.5,198.5C 146.071,200.471 136.738,200.805 127.5,199.5C 126.279,191.614 124.279,183.947 121.5,176.5C 123.099,176.768 124.432,176.434 125.5,175.5C 132.926,175.239 139.926,173.572 146.5,170.5C 153.864,167.32 161.197,163.82 168.5,160C 179.743,153.258 188.409,144.091 194.5,132.5C 194,132.167 193.5,131.833 193,131.5C 177.809,153.127 156.976,166.127 130.5,170.5C 126.413,171.201 122.413,171.201 118.5,170.5C 115.528,162.553 111.528,155.22 106.5,148.5C 107.492,148.672 108.158,148.338 108.5,147.5C 109.568,146.566 110.901,146.232 112.5,146.5C 120.697,144.992 128.363,142.325 135.5,138.5C 155.192,130.49 173.526,120.156 190.5,107.5 Z"/></g>
<g><path style="opacity:1" fill="#fede7f" d="M 1.5,94.5 C 32.5604,95.6841 60.227,105.851 84.5,125C 85.8228,125.816 86.4894,126.983 86.5,128.5C 75.3648,135.572 64.3648,142.905 53.5,150.5C 51.9557,150.703 50.6223,151.37 49.5,152.5C 34.7349,143.467 18.7349,138.467 1.5,137.5C 1.5,123.167 1.5,108.833 1.5,94.5 Z"/></g>
<g><path style="opacity:1" fill="#8dd2f9" d="M 166.5,74.5 C 167.239,74.369 167.906,74.5357 168.5,75C 176.19,83.8443 182.857,93.3443 188.5,103.5C 168.475,120.183 145.809,132.183 120.5,139.5C 117.654,139.552 115.32,140.552 113.5,142.5C 109.864,143.326 106.197,143.992 102.5,144.5C 99.4038,140.227 96.0704,136.06 92.5,132C 91.552,131.517 90.552,131.351 89.5,131.5C 116.732,114.707 142.398,95.7068 166.5,74.5 Z"/></g>
<g><path style="opacity:1" fill="#120d74" d="M 154.5,57.5 C 155.528,69.7605 149.861,76.0939 137.5,76.5C 133.544,76.2428 130.211,74.7428 127.5,72C 128,70.5 128.5,69 129,67.5C 134.314,75.2307 140.648,76.2307 148,70.5C 151.695,65.1819 151.195,60.3486 146.5,56C 142.251,53.8065 137.918,51.8065 133.5,50C 131.598,48.2703 129.931,46.437 128.5,44.5C 128.795,29.8266 136.129,24.6599 150.5,29C 151.428,29.3879 152.095,30.0546 152.5,31C 152,32.5 151.5,34 151,35.5C 148.367,30.2685 144.201,28.4351 138.5,30C 131.115,34.8775 130.782,40.2108 137.5,46C 141.749,48.1935 146.082,50.1935 150.5,52C 152.439,53.4321 153.772,55.2654 154.5,57.5 Z"/></g>
<g><path style="opacity:1" fill="#120d74" d="M 110.5,32.5 C 113.471,27.1111 114.805,27.7778 114.5,34.5C 115.987,48.1917 117.654,61.8584 119.5,75.5C 117.5,75.5 115.5,75.5 113.5,75.5C 113.383,63.3816 112.217,51.3816 110,39.5C 102.904,50.6873 96.5709,62.354 91,74.5C 85.7811,62.3948 79.7811,50.7281 73,39.5C 70.4793,51.3547 69.3126,63.3547 69.5,75.5C 68.1667,75.5 66.8333,75.5 65.5,75.5C 67.4444,59.7773 69.7778,44.1106 72.5,28.5C 78.826,41.1553 85.6593,53.4886 93,65.5C 99.368,54.763 105.201,43.763 110.5,32.5 Z"/></g>
<g><path style="opacity:1" fill="#fcf9f3" d="M 19.5,1.5 C 87.1667,1.5 154.833,1.5 222.5,1.5C 222.5,67.5 222.5,133.5 222.5,199.5C 218.133,169.048 208.966,140.048 195,112.5C 193.933,110.308 192.433,108.642 190.5,107.5C 194.438,104.065 198.271,100.398 202,96.5C 203.756,94.7258 203.756,93.0591 202,91.5C 197.906,96.1017 193.406,100.102 188.5,103.5C 182.857,93.3443 176.19,83.8443 168.5,75C 167.906,74.5357 167.239,74.369 166.5,74.5C 178.483,63.5158 189.817,51.8492 200.5,39.5C 200,39.1667 199.5,38.8333 199,38.5C 187.333,49.9336 175.5,61.2669 163.5,72.5C 162.051,68.5276 159.551,65.1943 156,62.5C 155.802,60.6183 155.302,58.9516 154.5,57.5C 153.772,55.2654 152.439,53.4321 150.5,52C 146.082,50.1935 141.749,48.1935 137.5,46C 130.782,40.2108 131.115,34.8775 138.5,30C 144.201,28.4351 148.367,30.2685 151,35.5C 151.5,34 152,32.5 152.5,31C 152.095,30.0546 151.428,29.3879 150.5,29C 136.129,24.6599 128.795,29.8266 128.5,44.5C 127.776,42.7816 127.109,40.9483 126.5,39C 122.916,36.9586 119.416,34.792 116,32.5C 115.722,33.4158 115.222,34.0825 114.5,34.5C 114.805,27.7778 113.471,27.1111 110.5,32.5C 110.67,31.1779 110.337,30.0113 109.5,29C 81.1853,14.2556 51.1853,5.08894 19.5,1.5 Z"/></g>
<g><path style="opacity:1" fill="#8ad0f9" d="M 19.5,1.5 C 51.1853,5.08894 81.1853,14.2556 109.5,29C 110.337,30.0113 110.67,31.1779 110.5,32.5C 105.201,43.763 99.368,54.763 93,65.5C 85.6593,53.4886 78.826,41.1553 72.5,28.5C 69.7778,44.1106 67.4444,59.7773 65.5,75.5C 66.8333,75.5 68.1667,75.5 69.5,75.5C 69.3126,63.3547 70.4793,51.3547 73,39.5C 79.7811,50.7281 85.7811,62.3948 91,74.5C 96.5709,62.354 102.904,50.6873 110,39.5C 112.217,51.3816 113.383,63.3816 113.5,75.5C 115.5,75.5 117.5,75.5 119.5,75.5C 117.654,61.8584 115.987,48.1917 114.5,34.5C 115.222,34.0825 115.722,33.4158 116,32.5C 119.416,34.792 122.916,36.9586 126.5,39C 127.109,40.9483 127.776,42.7816 128.5,44.5C 129.931,46.437 131.598,48.2703 133.5,50C 137.918,51.8065 142.251,53.8065 146.5,56C 151.195,60.3486 151.695,65.1819 148,70.5C 140.648,76.2307 134.314,75.2307 129,67.5C 128.5,69 128,70.5 127.5,72C 130.211,74.7428 133.544,76.2428 137.5,76.5C 149.861,76.0939 155.528,69.7605 154.5,57.5C 155.302,58.9516 155.802,60.6183 156,62.5C 159.551,65.1943 162.051,68.5276 163.5,72.5C 139.752,93.8672 114.086,112.534 86.5,128.5C 86.4894,126.983 85.8228,125.816 84.5,125C 60.227,105.851 32.5604,95.6841 1.5,94.5C 1.5,63.5 1.5,32.5 1.5,1.5C 7.5,1.5 13.5,1.5 19.5,1.5 Z"/></g>
<g><path style="opacity:1" fill="#181075" d="M 39.5,27.5 C 46.087,27.3754 52.4204,28.542 58.5,31C 57.9288,32.2051 57.2621,33.3717 56.5,34.5C 48.5449,28.4901 40.2116,27.9901 31.5,33C 29.3002,35.2336 27.4669,37.7336 26,40.5C 23.4679,49.4717 24.1346,58.1383 28,66.5C 36.7255,75.9877 46.3922,76.9877 57,69.5C 57.6838,70.7839 57.5171,71.9505 56.5,73C 44.8625,78.4846 34.0292,77.3179 24,69.5C 17.5512,59.2152 16.8846,48.5485 22,37.5C 26.6691,31.9213 32.5025,28.5879 39.5,27.5 Z"/></g>
</svg>
