<?xml version="1.0" encoding="UTF-8"?>
<svg xmlns="http://www.w3.org/2000/svg" xmlns:xlink="http://www.w3.org/1999/xlink" width="24px" height="24px" viewBox="0 0 24 24" version="1.1">
<g id="surface1">
<path style=" stroke:none;fill-rule:evenodd;fill:rgb(23.137255%,24.313725%,23.529412%);fill-opacity:1;" d="M -0.0546875 0.0546875 C -0.0546875 0.0195312 -0.0546875 -0.0195312 -0.0546875 -0.0546875 C 7.945312 -0.0546875 15.945312 -0.0546875 23.945312 -0.0546875 C 23.945312 -0.0195312 23.945312 0.0195312 23.945312 0.0546875 C 23.875 7.414062 23.804688 14.773438 23.734375 22.132812 C 23.734375 21.847656 23.734375 21.566406 23.734375 21.28125 C 23.734375 14.238281 23.734375 7.199219 23.734375 0.160156 C 16.515625 0.160156 9.296875 0.160156 2.078125 0.160156 C 1.441406 0.160156 0.800781 0.160156 0.160156 0.160156 C 0.160156 3.464844 0.160156 6.773438 0.160156 10.078125 C 0.160156 11.609375 0.160156 13.136719 0.160156 14.667969 C 0.160156 15.910156 0.160156 17.15625 0.160156 18.398438 C 0.160156 18.472656 0.160156 18.542969 0.160156 18.613281 C 0.160156 20.140625 0.160156 21.671875 0.160156 23.199219 C 0.160156 23.269531 0.160156 23.34375 0.160156 23.414062 C 0.0898438 15.625 0.0195312 7.839844 -0.0546875 0.0546875 Z M -0.0546875 0.0546875 "/>
<path style=" stroke:none;fill-rule:evenodd;fill:rgb(7.843137%,8.627451%,9.019608%);fill-opacity:1;" d="M -0.0546875 0.0546875 C 0.0195312 7.839844 0.0898438 15.625 0.160156 23.414062 C 0.160156 23.519531 0.160156 23.625 0.160156 23.734375 C 0.265625 23.734375 0.375 23.734375 0.480469 23.734375 C 0.835938 23.734375 1.191406 23.734375 1.546875 23.734375 C 2.792969 23.734375 4.035156 23.734375 5.28125 23.734375 C 5.386719 23.734375 5.492188 23.734375 5.601562 23.734375 C 6.808594 23.734375 8.019531 23.734375 9.226562 23.734375 C 10.753906 23.734375 12.285156 23.734375 13.8125 23.734375 C 17.121094 23.734375 20.425781 23.734375 23.734375 23.734375 C 23.734375 23.199219 23.734375 22.667969 23.734375 22.132812 C 23.804688 14.773438 23.875 7.414062 23.945312 0.0546875 C 23.945312 8.019531 23.945312 15.980469 23.945312 23.945312 C 15.945312 23.945312 7.945312 23.945312 -0.0546875 23.945312 C -0.0546875 15.980469 -0.0546875 8.019531 -0.0546875 0.0546875 Z M -0.0546875 0.0546875 "/>
<path style=" stroke:none;fill-rule:evenodd;fill:rgb(72.156863%,91.764706%,62.745098%);fill-opacity:1;" d="M 1.226562 22.878906 C 1.375 23.148438 1.480469 23.433594 1.546875 23.734375 C 1.191406 23.734375 0.835938 23.734375 0.480469 23.734375 C 0.648438 23.386719 0.898438 23.101562 1.226562 22.878906 Z M 1.226562 22.878906 "/>
<path style=" stroke:none;fill-rule:evenodd;fill:rgb(99.215686%,84.705882%,81.568627%);fill-opacity:1;" d="M 16.691406 21.601562 C 16.472656 21.734375 16.222656 21.824219 15.945312 21.867188 C 15.199219 21.921875 14.453125 21.9375 13.707031 21.921875 C 13.46875 21.953125 13.253906 21.914062 13.066406 21.8125 C 14.285156 21.859375 15.492188 21.789062 16.691406 21.601562 Z M 16.691406 21.601562 "/>
<path style=" stroke:none;fill-rule:evenodd;fill:rgb(96.862745%,87.058824%,82.352941%);fill-opacity:1;" d="M 1.011719 21.386719 C 0.820312 21.917969 0.570312 22.417969 0.265625 22.878906 C 0.40625 22.320312 0.652344 21.820312 1.011719 21.386719 Z M 1.011719 21.386719 "/>
<path style=" stroke:none;fill-rule:evenodd;fill:rgb(92.54902%,90.196078%,80.392157%);fill-opacity:1;" d="M 3.464844 21.492188 C 3.148438 21.722656 2.792969 21.902344 2.398438 22.027344 C 2.691406 21.738281 3.046875 21.5625 3.464844 21.492188 Z M 3.464844 21.492188 "/>
<path style=" stroke:none;fill-rule:evenodd;fill:rgb(57.647059%,89.019608%,41.568627%);fill-opacity:1;" d="M 4.640625 21.28125 C 5.070312 22.039062 5.28125 22.855469 5.28125 23.734375 C 4.035156 23.734375 2.792969 23.734375 1.546875 23.734375 C 1.480469 23.433594 1.375 23.148438 1.226562 22.878906 C 1.425781 22.601562 1.675781 22.371094 1.972656 22.1875 C 2.105469 22.101562 2.25 22.050781 2.398438 22.027344 C 2.792969 21.902344 3.148438 21.722656 3.464844 21.492188 C 3.859375 21.421875 4.25 21.351562 4.640625 21.28125 Z M 4.640625 21.28125 "/>
<path style=" stroke:none;fill-rule:evenodd;fill:rgb(99.607843%,87.45098%,49.411765%);fill-opacity:1;" d="M 10.078125 21.28125 C 11.039062 21.589844 12.035156 21.765625 13.066406 21.8125 C 13.253906 21.914062 13.46875 21.953125 13.707031 21.921875 C 13.808594 22.515625 13.84375 23.117188 13.8125 23.734375 C 12.285156 23.734375 10.753906 23.734375 9.226562 23.734375 C 9.226562 22.871094 9.085938 22.035156 8.800781 21.226562 C 9.226562 21.1875 9.65625 21.207031 10.078125 21.28125 Z M 10.078125 21.28125 "/>
<path style=" stroke:none;fill-rule:evenodd;fill:rgb(71.764706%,65.882353%,78.823529%);fill-opacity:1;" d="M 4.535156 21.171875 C 4.570312 21.082031 4.640625 21.046875 4.746094 21.066406 C 5.308594 21.851562 5.59375 22.742188 5.601562 23.734375 C 5.492188 23.734375 5.386719 23.734375 5.28125 23.734375 C 5.28125 22.855469 5.070312 22.039062 4.640625 21.28125 C 4.640625 21.207031 4.605469 21.171875 4.535156 21.171875 Z M 4.535156 21.171875 "/>
<path style=" stroke:none;fill-rule:evenodd;fill:rgb(98.039216%,84.313725%,80.784314%);fill-opacity:1;" d="M 1.332031 20.851562 C 1.339844 21.015625 1.269531 21.121094 1.121094 21.171875 C 1.113281 21.011719 1.183594 20.902344 1.332031 20.851562 Z M 1.332031 20.851562 "/>
<path style=" stroke:none;fill-rule:evenodd;fill:rgb(90.196078%,90.588235%,92.156863%);fill-opacity:1;" d="M 10.078125 21.28125 C 9.65625 21.207031 9.226562 21.1875 8.800781 21.226562 C 9.085938 22.035156 9.226562 22.871094 9.226562 23.734375 C 8.019531 23.734375 6.808594 23.734375 5.601562 23.734375 C 5.59375 22.742188 5.308594 21.851562 4.746094 21.066406 C 6.199219 20.804688 7.65625 20.785156 9.121094 21.011719 C 9.472656 21.035156 9.792969 21.125 10.078125 21.28125 Z M 10.078125 21.28125 "/>
<path style=" stroke:none;fill-rule:evenodd;fill:rgb(94.117647%,16.470588%,7.843137%);fill-opacity:1;" d="M 17.761719 7.945312 C 15.1875 10.207031 12.453125 12.234375 9.546875 14.027344 C 8.21875 14.679688 7.011719 15.496094 5.921875 16.480469 C 4.269531 17.667969 2.917969 19.125 1.867188 20.851562 C 3.242188 19.402344 4.773438 18.160156 6.453125 17.121094 C 7.910156 16.425781 9.402344 15.859375 10.933594 15.414062 C 11.328125 15.359375 11.71875 15.289062 12.105469 15.199219 C 12.390625 15.152344 12.640625 15.046875 12.851562 14.878906 C 15.554688 14.097656 17.96875 12.820312 20.105469 11.039062 C 20.628906 10.675781 21.109375 10.25 21.546875 9.761719 C 21.734375 9.925781 21.734375 10.105469 21.546875 10.292969 C 21.148438 10.710938 20.738281 11.101562 20.320312 11.464844 C 18.507812 12.816406 16.554688 13.917969 14.453125 14.773438 C 13.613281 15.019531 12.792969 15.300781 12 15.625 C 11.828125 15.597656 11.6875 15.632812 11.574219 15.734375 C 11.261719 15.742188 10.976562 15.8125 10.71875 15.945312 C 9.996094 16.035156 9.320312 16.246094 8.691406 16.585938 C 8.402344 16.609375 8.152344 16.714844 7.945312 16.90625 C 5.84375 17.78125 4.011719 19.0625 2.453125 20.746094 C 2.382812 20.816406 2.382812 20.890625 2.453125 20.960938 C 4.070312 19.601562 5.9375 18.800781 8.054688 18.558594 C 9.546875 18.523438 11.039062 18.488281 12.535156 18.453125 C 13.019531 18.425781 13.484375 18.335938 13.921875 18.1875 C 16.742188 17.71875 18.964844 16.332031 20.585938 14.027344 C 20.640625 14.0625 20.691406 14.097656 20.746094 14.132812 C 20.097656 15.371094 19.171875 16.347656 17.972656 17.066406 C 17.195312 17.472656 16.414062 17.847656 15.625 18.1875 C 14.863281 18.351562 14.117188 18.527344 13.386719 18.71875 C 11.613281 18.902344 9.835938 18.972656 8.054688 18.933594 C 6.515625 19.054688 5.128906 19.550781 3.894531 20.425781 C 3.605469 20.464844 3.390625 20.605469 3.253906 20.851562 C 2.101562 21.574219 2.136719 21.648438 3.359375 21.066406 C 3.632812 21.042969 3.882812 20.972656 4.105469 20.851562 C 6.097656 20.429688 8.089844 20.429688 10.078125 20.851562 C 11.894531 21.375 13.742188 21.570312 15.625 21.441406 C 15.976562 21.417969 16.296875 21.328125 16.585938 21.171875 C 16.910156 21.136719 17.191406 21.011719 17.441406 20.800781 C 17.941406 20.335938 18.402344 19.835938 18.828125 19.308594 C 18.984375 19.242188 19.089844 19.296875 19.148438 19.464844 C 18.519531 20.414062 17.699219 21.125 16.691406 21.601562 C 15.492188 21.789062 14.285156 21.859375 13.066406 21.8125 C 12.097656 21.570312 11.101562 21.390625 10.078125 21.28125 C 9.792969 21.125 9.472656 21.035156 9.121094 21.011719 C 7.65625 20.785156 6.199219 20.804688 4.746094 21.066406 C 4.640625 21.046875 4.570312 21.082031 4.535156 21.171875 C 4.144531 21.195312 3.789062 21.304688 3.464844 21.492188 C 3.046875 21.5625 2.691406 21.738281 2.398438 22.027344 C 2.25 22.050781 2.105469 22.101562 1.972656 22.1875 C 1.675781 22.371094 1.425781 22.601562 1.226562 22.878906 C 0.898438 23.101562 0.648438 23.386719 0.480469 23.734375 C 0.375 23.734375 0.265625 23.734375 0.160156 23.734375 C 0.160156 23.625 0.160156 23.519531 0.160156 23.414062 C 0.160156 23.34375 0.160156 23.269531 0.160156 23.199219 C 0.257812 23.125 0.292969 23.019531 0.265625 22.878906 C 0.570312 22.417969 0.820312 21.917969 1.011719 21.386719 C 1.101562 21.351562 1.136719 21.277344 1.121094 21.171875 C 1.269531 21.121094 1.339844 21.015625 1.332031 20.851562 C 1.421875 20.816406 1.457031 20.746094 1.441406 20.640625 C 1.589844 20.589844 1.660156 20.484375 1.652344 20.320312 C 1.722656 20.320312 1.761719 20.285156 1.761719 20.214844 C 1.910156 20.164062 1.980469 20.054688 1.972656 19.894531 C 2.125 19.84375 2.195312 19.734375 2.1875 19.574219 C 2.257812 19.574219 2.292969 19.539062 2.292969 19.464844 C 2.480469 19.386719 2.589844 19.242188 2.613281 19.039062 C 3.578125 17.96875 4.609375 16.972656 5.707031 16.054688 C 6.867188 15.242188 8.039062 14.460938 9.226562 13.707031 C 12.167969 12.003906 14.90625 10.011719 17.441406 7.734375 C 18.71875 6.535156 19.980469 5.328125 21.226562 4.105469 C 21.28125 4.140625 21.332031 4.179688 21.386719 4.214844 C 20.246094 5.53125 19.039062 6.773438 17.761719 7.945312 Z M 17.761719 7.945312 "/>
<path style=" stroke:none;fill-rule:evenodd;fill:rgb(100%,87.45098%,81.568627%);fill-opacity:1;" d="M 10.078125 21.28125 C 11.101562 21.390625 12.097656 21.570312 13.066406 21.8125 C 12.035156 21.765625 11.039062 21.589844 10.078125 21.28125 Z M 10.078125 21.28125 "/>
<path style=" stroke:none;fill-rule:evenodd;fill:rgb(89.803922%,92.156863%,79.607843%);fill-opacity:1;" d="M 4.535156 21.171875 C 4.605469 21.171875 4.640625 21.207031 4.640625 21.28125 C 4.25 21.351562 3.859375 21.421875 3.464844 21.492188 C 3.789062 21.304688 4.144531 21.195312 4.535156 21.171875 Z M 4.535156 21.171875 "/>
<path style=" stroke:none;fill-rule:evenodd;fill:rgb(96.862745%,85.490196%,79.607843%);fill-opacity:1;" d="M 4.105469 20.851562 C 3.882812 20.972656 3.632812 21.042969 3.359375 21.066406 C 3.566406 20.890625 3.816406 20.816406 4.105469 20.851562 Z M 4.105469 20.851562 "/>
<path style=" stroke:none;fill-rule:evenodd;fill:rgb(91.764706%,92.156863%,81.960784%);fill-opacity:1;" d="M 3.253906 20.851562 C 3.089844 21.003906 3.125 21.078125 3.359375 21.066406 C 2.136719 21.648438 2.101562 21.574219 3.253906 20.851562 Z M 3.253906 20.851562 "/>
<path style=" stroke:none;fill-rule:evenodd;fill:rgb(100%,74.901961%,72.156863%);fill-opacity:1;" d="M 1.867188 20.851562 C 1.871094 20.988281 1.816406 21.09375 1.707031 21.171875 C 1.644531 21.011719 1.699219 20.90625 1.867188 20.851562 Z M 1.867188 20.851562 "/>
<path style=" stroke:none;fill-rule:evenodd;fill:rgb(99.607843%,86.666667%,80.784314%);fill-opacity:1;" d="M 10.078125 20.851562 C 10.078125 20.816406 10.078125 20.78125 10.078125 20.746094 C 11.234375 21.042969 12.40625 21.222656 13.601562 21.28125 C 14.585938 21.417969 15.582031 21.382812 16.585938 21.171875 C 16.296875 21.328125 15.976562 21.417969 15.625 21.441406 C 13.742188 21.570312 11.894531 21.375 10.078125 20.851562 Z M 10.078125 20.851562 "/>
<path style=" stroke:none;fill-rule:evenodd;fill:rgb(66.27451%,90.980392%,52.156863%);fill-opacity:1;" d="M 3.894531 20.425781 C 4.269531 20.503906 4.339844 20.644531 4.105469 20.851562 C 3.816406 20.816406 3.566406 20.890625 3.359375 21.066406 C 3.125 21.078125 3.089844 21.003906 3.253906 20.851562 C 3.390625 20.605469 3.605469 20.464844 3.894531 20.425781 Z M 3.894531 20.425781 "/>
<path style=" stroke:none;fill-rule:evenodd;fill:rgb(96.078431%,92.156863%,87.843137%);fill-opacity:1;" d="M 1.652344 20.320312 C 1.660156 20.484375 1.589844 20.589844 1.441406 20.640625 C 1.433594 20.476562 1.503906 20.371094 1.652344 20.320312 Z M 1.652344 20.320312 "/>
<path style=" stroke:none;fill-rule:evenodd;fill:rgb(99.607843%,77.647059%,75.294118%);fill-opacity:1;" d="M 1.972656 19.894531 C 1.980469 20.054688 1.910156 20.164062 1.761719 20.214844 C 1.753906 20.050781 1.824219 19.945312 1.972656 19.894531 Z M 1.972656 19.894531 "/>
<path style=" stroke:none;fill-rule:evenodd;fill:rgb(96.470588%,86.666667%,81.568627%);fill-opacity:1;" d="M 2.1875 19.574219 C 2.195312 19.734375 2.125 19.84375 1.972656 19.894531 C 1.964844 19.730469 2.035156 19.625 2.1875 19.574219 Z M 2.1875 19.574219 "/>
<path style=" stroke:none;fill-rule:evenodd;fill:rgb(90.980392%,89.411765%,90.196078%);fill-opacity:1;" d="M 8.054688 18.933594 C 8.054688 18.96875 8.054688 19.003906 8.054688 19.039062 C 8.007812 19.03125 7.972656 19.050781 7.945312 19.09375 C 8.203125 19.515625 8.417969 19.960938 8.585938 20.425781 C 9.085938 20.554688 9.582031 20.660156 10.078125 20.746094 C 10.078125 20.78125 10.078125 20.816406 10.078125 20.851562 C 8.089844 20.429688 6.097656 20.429688 4.105469 20.851562 C 4.339844 20.644531 4.269531 20.503906 3.894531 20.425781 C 5.128906 19.550781 6.515625 19.054688 8.054688 18.933594 Z M 8.054688 18.933594 "/>
<path style=" stroke:none;fill-rule:evenodd;fill:rgb(99.607843%,87.058824%,49.411765%);fill-opacity:1;" d="M 12.960938 18.828125 C 13.257812 19.621094 13.46875 20.4375 13.601562 21.28125 C 12.40625 21.222656 11.234375 21.042969 10.078125 20.746094 C 9.582031 20.660156 9.085938 20.554688 8.585938 20.425781 C 8.417969 19.960938 8.203125 19.515625 7.945312 19.09375 C 7.972656 19.050781 8.007812 19.03125 8.054688 19.039062 C 9.699219 19.097656 11.335938 19.023438 12.960938 18.828125 Z M 12.960938 18.828125 "/>
<path style=" stroke:none;fill-rule:evenodd;fill:rgb(99.607843%,94.117647%,79.607843%);fill-opacity:1;" d="M 13.386719 18.71875 C 13.273438 18.820312 13.128906 18.855469 12.960938 18.828125 C 11.335938 19.023438 9.699219 19.097656 8.054688 19.039062 C 8.054688 19.003906 8.054688 18.96875 8.054688 18.933594 C 9.835938 18.972656 11.613281 18.902344 13.386719 18.71875 Z M 13.386719 18.71875 "/>
<path style=" stroke:none;fill-rule:evenodd;fill:rgb(58.039216%,89.019608%,42.352941%);fill-opacity:1;" d="M 0.160156 18.613281 C 0.960938 18.628906 1.707031 18.824219 2.398438 19.199219 C 2.320312 19.273438 2.285156 19.359375 2.292969 19.464844 C 2.292969 19.539062 2.257812 19.574219 2.1875 19.574219 C 2.035156 19.625 1.964844 19.730469 1.972656 19.894531 C 1.824219 19.945312 1.753906 20.050781 1.761719 20.214844 C 1.761719 20.285156 1.722656 20.320312 1.652344 20.320312 C 1.503906 20.371094 1.433594 20.476562 1.441406 20.640625 C 1.457031 20.746094 1.421875 20.816406 1.332031 20.851562 C 1.183594 20.902344 1.113281 21.011719 1.121094 21.171875 C 1.136719 21.277344 1.101562 21.351562 1.011719 21.386719 C 0.652344 21.820312 0.40625 22.320312 0.265625 22.878906 C 0.292969 23.019531 0.257812 23.125 0.160156 23.199219 C 0.160156 21.671875 0.160156 20.140625 0.160156 18.613281 Z M 0.160156 18.613281 "/>
<path style=" stroke:none;fill-rule:evenodd;fill:rgb(89.411765%,88.627451%,90.588235%);fill-opacity:1;" d="M 15.625 18.1875 C 14.925781 18.515625 14.179688 18.691406 13.386719 18.71875 C 14.117188 18.527344 14.863281 18.351562 15.625 18.1875 Z M 15.625 18.1875 "/>
<path style=" stroke:none;fill-rule:evenodd;fill:rgb(72.941176%,67.45098%,79.215686%);fill-opacity:1;" d="M 0.160156 18.398438 C 1.074219 18.300781 1.894531 18.511719 2.613281 19.039062 C 2.589844 19.242188 2.480469 19.386719 2.292969 19.464844 C 2.285156 19.359375 2.320312 19.273438 2.398438 19.199219 C 1.707031 18.824219 0.960938 18.628906 0.160156 18.613281 C 0.160156 18.542969 0.160156 18.472656 0.160156 18.398438 Z M 0.160156 18.398438 "/>
<path style=" stroke:none;fill-rule:evenodd;fill:rgb(93.333333%,90.980392%,89.803922%);fill-opacity:1;" d="M 7.945312 16.90625 C 7.5625 17.136719 7.171875 17.367188 6.773438 17.601562 C 7.0625 17.851562 7.3125 18.136719 7.519531 18.453125 C 9.152344 18.425781 10.785156 18.390625 12.425781 18.347656 C 12.523438 18.316406 12.59375 18.265625 12.640625 18.1875 C 13.058594 18.261719 13.484375 18.261719 13.921875 18.1875 C 13.484375 18.335938 13.019531 18.425781 12.535156 18.453125 C 11.039062 18.488281 9.546875 18.523438 8.054688 18.558594 C 5.9375 18.800781 4.070312 19.601562 2.453125 20.960938 C 2.382812 20.890625 2.382812 20.816406 2.453125 20.746094 C 4.011719 19.0625 5.84375 17.78125 7.945312 16.90625 Z M 7.945312 16.90625 "/>
<path style=" stroke:none;fill-rule:evenodd;fill:rgb(92.156863%,90.980392%,90.196078%);fill-opacity:1;" d="M 5.921875 16.480469 C 5.90625 16.546875 5.871094 16.597656 5.8125 16.640625 C 5.984375 16.867188 6.199219 17.027344 6.453125 17.121094 C 4.773438 18.160156 3.242188 19.402344 1.867188 20.851562 C 2.917969 19.125 4.269531 17.667969 5.921875 16.480469 Z M 5.921875 16.480469 "/>
<path style=" stroke:none;fill-rule:evenodd;fill:rgb(99.607843%,87.058824%,49.803922%);fill-opacity:1;" d="M 11.359375 15.839844 C 11.894531 16.558594 12.324219 17.339844 12.640625 18.1875 C 12.59375 18.265625 12.523438 18.316406 12.425781 18.347656 C 10.785156 18.390625 9.152344 18.425781 7.519531 18.453125 C 7.3125 18.136719 7.0625 17.851562 6.773438 17.601562 C 7.171875 17.367188 7.5625 17.136719 7.945312 16.90625 C 8.152344 16.714844 8.402344 16.609375 8.691406 16.585938 C 9.390625 16.414062 10.066406 16.199219 10.71875 15.945312 C 10.945312 15.964844 11.160156 15.929688 11.359375 15.839844 Z M 11.359375 15.839844 "/>
<path style=" stroke:none;fill-rule:evenodd;fill:rgb(100%,89.019608%,81.960784%);fill-opacity:1;" d="M 10.71875 15.945312 C 10.066406 16.199219 9.390625 16.414062 8.691406 16.585938 C 9.320312 16.246094 9.996094 16.035156 10.71875 15.945312 Z M 10.71875 15.945312 "/>
<path style=" stroke:none;fill-rule:evenodd;fill:rgb(99.215686%,89.411765%,84.705882%);fill-opacity:1;" d="M 11.574219 15.734375 C 11.535156 15.824219 11.464844 15.859375 11.359375 15.839844 C 11.160156 15.929688 10.945312 15.964844 10.71875 15.945312 C 10.976562 15.8125 11.261719 15.742188 11.574219 15.734375 Z M 11.574219 15.734375 "/>
<path style=" stroke:none;fill-rule:evenodd;fill:rgb(91.764706%,87.843137%,89.019608%);fill-opacity:1;" d="M 14.453125 14.773438 C 13.691406 15.179688 12.875 15.464844 12 15.625 C 12.792969 15.300781 13.613281 15.019531 14.453125 14.773438 Z M 14.453125 14.773438 "/>
<path style=" stroke:none;fill-rule:evenodd;fill:rgb(97.647059%,82.745098%,81.568627%);fill-opacity:1;" d="M 12.851562 14.878906 C 12.640625 15.046875 12.390625 15.152344 12.105469 15.199219 C 12.300781 14.992188 12.550781 14.886719 12.851562 14.878906 Z M 12.851562 14.878906 "/>
<path style=" stroke:none;fill-rule:evenodd;fill:rgb(89.803922%,90.980392%,92.941176%);fill-opacity:1;" d="M 0.160156 14.667969 C 2 14.769531 3.703125 15.304688 5.28125 16.265625 C 5.398438 16.144531 5.542969 16.074219 5.707031 16.054688 C 4.609375 16.972656 3.578125 17.96875 2.613281 19.039062 C 1.894531 18.511719 1.074219 18.300781 0.160156 18.398438 C 0.160156 17.15625 0.160156 15.910156 0.160156 14.667969 Z M 0.160156 14.667969 "/>
<path style=" stroke:none;fill-rule:evenodd;fill:rgb(100%,87.843137%,54.901961%);fill-opacity:1;" d="M 9.546875 14.027344 C 9.660156 14.011719 9.765625 14.027344 9.867188 14.078125 C 10.246094 14.511719 10.601562 14.957031 10.933594 15.414062 C 9.402344 15.859375 7.910156 16.425781 6.453125 17.121094 C 6.199219 17.027344 5.984375 16.867188 5.8125 16.640625 C 5.871094 16.597656 5.90625 16.546875 5.921875 16.480469 C 7.011719 15.496094 8.21875 14.679688 9.546875 14.027344 Z M 9.546875 14.027344 "/>
<path style=" stroke:none;fill-rule:evenodd;fill:rgb(53.72549%,81.960784%,97.647059%);fill-opacity:1;" d="M 20.320312 11.464844 C 20.527344 11.589844 20.6875 11.765625 20.800781 12 C 22.289062 14.9375 23.265625 18.03125 23.734375 21.28125 C 23.734375 21.566406 23.734375 21.847656 23.734375 22.132812 C 23.734375 22.667969 23.734375 23.199219 23.734375 23.734375 C 20.425781 23.734375 17.121094 23.734375 13.8125 23.734375 C 13.84375 23.117188 13.808594 22.515625 13.707031 21.921875 C 14.453125 21.9375 15.199219 21.921875 15.945312 21.867188 C 16.222656 21.824219 16.472656 21.734375 16.691406 21.601562 C 17.699219 21.125 18.519531 20.414062 19.148438 19.464844 C 19.089844 19.296875 18.984375 19.242188 18.828125 19.308594 C 18.402344 19.835938 17.941406 20.335938 17.441406 20.800781 C 17.191406 21.011719 16.910156 21.136719 16.585938 21.171875 C 15.582031 21.382812 14.585938 21.417969 13.601562 21.28125 C 13.46875 20.4375 13.257812 19.621094 12.960938 18.828125 C 13.128906 18.855469 13.273438 18.820312 13.386719 18.71875 C 14.179688 18.691406 14.925781 18.515625 15.625 18.1875 C 16.414062 17.847656 17.195312 17.472656 17.972656 17.066406 C 19.171875 16.347656 20.097656 15.371094 20.746094 14.132812 C 20.691406 14.097656 20.640625 14.0625 20.585938 14.027344 C 18.964844 16.332031 16.742188 17.71875 13.921875 18.1875 C 13.484375 18.261719 13.058594 18.261719 12.640625 18.1875 C 12.324219 17.339844 11.894531 16.558594 11.359375 15.839844 C 11.464844 15.859375 11.535156 15.824219 11.574219 15.734375 C 11.6875 15.632812 11.828125 15.597656 12 15.625 C 12.875 15.464844 13.691406 15.179688 14.453125 14.773438 C 16.554688 13.917969 18.507812 12.816406 20.320312 11.464844 Z M 20.320312 11.464844 "/>
<path style=" stroke:none;fill-rule:evenodd;fill:rgb(99.607843%,87.058824%,49.803922%);fill-opacity:1;" d="M 0.160156 10.078125 C 3.472656 10.207031 6.425781 11.289062 9.011719 13.332031 C 9.15625 13.421875 9.226562 13.542969 9.226562 13.707031 C 8.039062 14.460938 6.867188 15.242188 5.707031 16.054688 C 5.542969 16.074219 5.398438 16.144531 5.28125 16.265625 C 3.703125 15.304688 2 14.769531 0.160156 14.667969 C 0.160156 13.136719 0.160156 11.609375 0.160156 10.078125 Z M 0.160156 10.078125 "/>
<path style=" stroke:none;fill-rule:evenodd;fill:rgb(55.294118%,82.352941%,97.647059%);fill-opacity:1;" d="M 17.761719 7.945312 C 17.839844 7.933594 17.910156 7.949219 17.972656 8 C 18.792969 8.945312 19.503906 9.957031 20.105469 11.039062 C 17.96875 12.820312 15.554688 14.097656 12.851562 14.878906 C 12.550781 14.886719 12.300781 14.992188 12.105469 15.199219 C 11.71875 15.289062 11.328125 15.359375 10.933594 15.414062 C 10.601562 14.957031 10.246094 14.511719 9.867188 14.078125 C 9.765625 14.027344 9.660156 14.011719 9.546875 14.027344 C 12.453125 12.234375 15.1875 10.207031 17.761719 7.945312 Z M 17.761719 7.945312 "/>
<path style=" stroke:none;fill-rule:evenodd;fill:rgb(7.058824%,5.098039%,45.490196%);fill-opacity:1;" d="M 16.480469 6.132812 C 16.589844 7.441406 15.984375 8.117188 14.667969 8.160156 C 14.246094 8.132812 13.890625 7.972656 13.601562 7.679688 C 13.652344 7.519531 13.707031 7.359375 13.761719 7.199219 C 14.328125 8.023438 15.003906 8.132812 15.785156 7.519531 C 16.179688 6.953125 16.128906 6.4375 15.625 5.972656 C 15.171875 5.738281 14.710938 5.527344 14.238281 5.332031 C 14.039062 5.148438 13.859375 4.953125 13.707031 4.746094 C 13.738281 3.179688 14.519531 2.628906 16.054688 3.09375 C 16.152344 3.132812 16.222656 3.207031 16.265625 3.308594 C 16.214844 3.464844 16.160156 3.625 16.105469 3.785156 C 15.824219 3.230469 15.382812 3.03125 14.773438 3.199219 C 13.984375 3.71875 13.949219 4.289062 14.667969 4.90625 C 15.121094 5.140625 15.582031 5.355469 16.054688 5.546875 C 16.261719 5.699219 16.402344 5.894531 16.480469 6.132812 Z M 16.480469 6.132812 "/>
<path style=" stroke:none;fill-rule:evenodd;fill:rgb(7.058824%,5.098039%,45.490196%);fill-opacity:1;" d="M 11.785156 3.464844 C 12.105469 2.890625 12.246094 2.964844 12.214844 3.679688 C 12.371094 5.140625 12.550781 6.597656 12.746094 8.054688 C 12.535156 8.054688 12.320312 8.054688 12.105469 8.054688 C 12.09375 6.761719 11.96875 5.480469 11.734375 4.214844 C 10.976562 5.40625 10.300781 6.652344 9.707031 7.945312 C 9.148438 6.65625 8.511719 5.410156 7.785156 4.214844 C 7.519531 5.476562 7.394531 6.757812 7.414062 8.054688 C 7.269531 8.054688 7.128906 8.054688 6.988281 8.054688 C 7.195312 6.375 7.441406 4.707031 7.734375 3.039062 C 8.40625 4.390625 9.136719 5.707031 9.921875 6.988281 C 10.597656 5.839844 11.222656 4.667969 11.785156 3.464844 Z M 11.785156 3.464844 "/>
<path style=" stroke:none;fill-rule:evenodd;fill:rgb(98.823529%,97.647059%,95.294118%);fill-opacity:1;" d="M 2.078125 0.160156 C 9.296875 0.160156 16.515625 0.160156 23.734375 0.160156 C 23.734375 7.199219 23.734375 14.238281 23.734375 21.28125 C 23.265625 18.03125 22.289062 14.9375 20.800781 12 C 20.6875 11.765625 20.527344 11.589844 20.320312 11.464844 C 20.738281 11.101562 21.148438 10.710938 21.546875 10.292969 C 21.734375 10.105469 21.734375 9.925781 21.546875 9.761719 C 21.109375 10.25 20.628906 10.675781 20.105469 11.039062 C 19.503906 9.957031 18.792969 8.945312 17.972656 8 C 17.910156 7.949219 17.839844 7.933594 17.761719 7.945312 C 19.039062 6.773438 20.246094 5.53125 21.386719 4.214844 C 21.332031 4.179688 21.28125 4.140625 21.226562 4.105469 C 19.980469 5.328125 18.71875 6.535156 17.441406 7.734375 C 17.285156 7.308594 17.019531 6.953125 16.640625 6.667969 C 16.617188 6.464844 16.566406 6.289062 16.480469 6.132812 C 16.402344 5.894531 16.261719 5.699219 16.054688 5.546875 C 15.582031 5.355469 15.121094 5.140625 14.667969 4.90625 C 13.949219 4.289062 13.984375 3.71875 14.773438 3.199219 C 15.382812 3.03125 15.824219 3.230469 16.105469 3.785156 C 16.160156 3.625 16.214844 3.464844 16.265625 3.308594 C 16.222656 3.207031 16.152344 3.132812 16.054688 3.09375 C 14.519531 2.628906 13.738281 3.179688 13.707031 4.746094 C 13.628906 4.5625 13.558594 4.367188 13.492188 4.160156 C 13.109375 3.941406 12.738281 3.710938 12.375 3.464844 C 12.34375 3.5625 12.289062 3.636719 12.214844 3.679688 C 12.246094 2.964844 12.105469 2.890625 11.785156 3.464844 C 11.804688 3.324219 11.769531 3.203125 11.679688 3.09375 C 8.660156 1.519531 5.460938 0.542969 2.078125 0.160156 Z M 2.078125 0.160156 "/>
<path style=" stroke:none;fill-rule:evenodd;fill:rgb(54.117647%,81.568627%,97.647059%);fill-opacity:1;" d="M 2.078125 0.160156 C 5.460938 0.542969 8.660156 1.519531 11.679688 3.09375 C 11.769531 3.203125 11.804688 3.324219 11.785156 3.464844 C 11.222656 4.667969 10.597656 5.839844 9.921875 6.988281 C 9.136719 5.707031 8.40625 4.390625 7.734375 3.039062 C 7.441406 4.707031 7.195312 6.375 6.988281 8.054688 C 7.128906 8.054688 7.269531 8.054688 7.414062 8.054688 C 7.394531 6.757812 7.519531 5.476562 7.785156 4.214844 C 8.511719 5.410156 9.148438 6.65625 9.707031 7.945312 C 10.300781 6.652344 10.976562 5.40625 11.734375 4.214844 C 11.96875 5.480469 12.09375 6.761719 12.105469 8.054688 C 12.320312 8.054688 12.535156 8.054688 12.746094 8.054688 C 12.550781 6.597656 12.371094 5.140625 12.214844 3.679688 C 12.289062 3.636719 12.34375 3.5625 12.375 3.464844 C 12.738281 3.710938 13.109375 3.941406 13.492188 4.160156 C 13.558594 4.367188 13.628906 4.5625 13.707031 4.746094 C 13.859375 4.953125 14.039062 5.148438 14.238281 5.332031 C 14.710938 5.527344 15.171875 5.738281 15.625 5.972656 C 16.128906 6.4375 16.179688 6.953125 15.785156 7.519531 C 15.003906 8.132812 14.328125 8.023438 13.761719 7.199219 C 13.707031 7.359375 13.652344 7.519531 13.601562 7.679688 C 13.890625 7.972656 14.246094 8.132812 14.667969 8.160156 C 15.984375 8.117188 16.589844 7.441406 16.480469 6.132812 C 16.566406 6.289062 16.617188 6.464844 16.640625 6.667969 C 17.019531 6.953125 17.285156 7.308594 17.441406 7.734375 C 14.90625 10.011719 12.167969 12.003906 9.226562 13.707031 C 9.226562 13.542969 9.15625 13.421875 9.011719 13.332031 C 6.425781 11.289062 3.472656 10.207031 0.160156 10.078125 C 0.160156 6.773438 0.160156 3.464844 0.160156 0.160156 C 0.800781 0.160156 1.441406 0.160156 2.078125 0.160156 Z M 2.078125 0.160156 "/>
<path style=" stroke:none;fill-rule:evenodd;fill:rgb(9.411765%,6.27451%,45.882353%);fill-opacity:1;" d="M 4.214844 2.933594 C 4.914062 2.921875 5.589844 3.042969 6.238281 3.308594 C 6.179688 3.433594 6.109375 3.558594 6.027344 3.679688 C 5.179688 3.039062 4.289062 2.984375 3.359375 3.519531 C 3.125 3.757812 2.929688 4.023438 2.773438 4.320312 C 2.503906 5.277344 2.574219 6.203125 2.988281 7.09375 C 3.917969 8.105469 4.949219 8.210938 6.078125 7.414062 C 6.152344 7.550781 6.136719 7.675781 6.027344 7.785156 C 4.785156 8.371094 3.628906 8.246094 2.558594 7.414062 C 1.871094 6.316406 1.800781 5.179688 2.347656 4 C 2.84375 3.40625 3.46875 3.050781 4.214844 2.933594 Z M 4.214844 2.933594 "/>
</g>
</svg>
