<?xml version="1.0" standalone="no"?>
<!DOCTYPE svg PUBLIC "-//W3C//DTD SVG 20010904//EN"
 "http://www.w3.org/TR/2001/REC-SVG-20010904/DTD/svg10.dtd">
<svg version="1.0" xmlns="http://www.w3.org/2000/svg"
 width="225.000000pt" height="225.000000pt" viewBox="0 0 225.000000 225.000000"
 preserveAspectRatio="xMidYMid meet">
<metadata>
Created by potrace 1.14, written by Peter Selinger 2001-2017
</metadata>
<g transform="translate(0.000000,225.000000) scale(0.100000,-0.100000)"
fill="#000000" stroke="none">
<path d="M0 1125 l0 -1125 1125 0 1125 0 0 1125 0 1125 -1125 0 -1125 0 0
-1125z m2230 0 l0 -1105 -1095 0 -1096 0 28 36 c67 85 204 166 348 206 68 18
106 22 250 22 148 0 187 -4 295 -27 347 -75 551 -75 676 -2 73 43 185 185 146
185 -5 0 -30 -27 -56 -59 -54 -67 -99 -102 -166 -128 -37 -14 -75 -17 -205
-17 -147 0 -175 4 -340 39 -166 35 -193 38 -345 39 -185 1 -284 -17 -400 -73
-61 -29 -61 -29 -38 -4 37 40 183 133 258 165 145 60 205 70 446 73 252 4 366
19 521 70 217 72 366 173 455 309 41 64 45 76 25 76 -7 0 -32 -30 -56 -66
-108 -163 -360 -296 -656 -345 -38 -6 -169 -12 -290 -14 -199 -2 -229 -5 -317
-28 -117 -31 -242 -91 -337 -163 -89 -67 -76 -40 26 56 211 198 430 316 718
389 317 80 616 216 830 376 74 56 185 162 185 176 0 22 -28 4 -100 -64 -186
-175 -512 -346 -830 -434 -219 -60 -322 -94 -404 -132 -176 -82 -331 -195
-476 -348 -73 -77 -87 -88 -65 -53 138 222 384 446 692 631 395 236 677 455
987 762 128 126 167 170 158 179 -8 8 -44 -22 -144 -123 -73 -74 -171 -169
-218 -211 -223 -198 -533 -425 -800 -583 -201 -118 -339 -223 -477 -363 -146
-147 -274 -335 -329 -482 -10 -29 -13 151 -13 1053 l-1 1087 1105 0 1105 0 0
-1105z"/>
<path d="M342 1951 c-108 -37 -157 -117 -151 -244 8 -146 90 -222 238 -221 82
0 151 22 151 48 0 12 -10 10 -52 -9 -84 -39 -161 -29 -215 27 -45 47 -63 96
-63 177 0 140 80 227 203 219 39 -3 67 -11 88 -27 34 -25 36 -25 41 4 7 41
-147 58 -240 26z"/>
<path d="M1365 1956 c-46 -20 -67 -51 -73 -104 -6 -63 20 -94 119 -141 91 -44
110 -73 88 -135 -27 -78 -118 -95 -179 -34 l-29 29 -7 -27 c-8 -30 2 -39 59
-54 105 -30 207 40 207 141 0 61 -20 85 -104 123 -102 47 -131 88 -102 144 29
57 116 66 155 16 l19 -24 6 23 c9 33 8 34 -25 46 -42 15 -97 13 -134 -3z"/>
<path d="M695 1758 c-16 -112 -30 -218 -33 -235 -4 -28 -1 -33 17 -33 19 0 21
6 21 53 0 55 28 298 35 305 2 2 44 -76 93 -174 l90 -179 22 50 c12 27 53 108
93 180 71 130 71 130 78 95 4 -19 13 -101 20 -182 l13 -148 29 0 c27 0 29 2
24 28 -3 15 -16 120 -28 235 -13 114 -26 207 -29 207 -3 0 -48 -80 -101 -177
-53 -97 -100 -178 -105 -180 -9 -3 -104 163 -165 290 -18 37 -36 67 -39 67 -4
0 -19 -91 -35 -202z"/>
</g>
</svg>
